<svg xmlns="http://www.w3.org/2000/svg" width="512" height="512" viewBox="0 0 64 64">
	<desc>SAZANKA LOGO mentor</desc>
	<g style="fill:none;stroke:url(#col);stroke-width:2;stroke-linecap:round;stroke-linejoin:round;" transform="translate(32,32)">
		<defs>
			<linearGradient id="col" x1="-24" y1="-24" x2="24" y2="24" gradientUnits="userSpaceOnUse">
				<stop offset="0" stop-color="#048"/><stop offset="1" stop-color="#8ac"/>
			</linearGradient>
		</defs>
		<circle r="31" style="fill:#fff;stroke:#ddd;"/>
		<path d="
			M13-13c3-17-29-17-26,0M7-19c8-6,21,8,17,19M21-3c8,6,1,23-9,23
			M-13,13c-3,17,29,17,26,0M-7,19c-8,6-21-8-17-19M-21,3c-8-6-1-23,9-23
			M11-11q-11-16-22,0-16,11,0,22,11,16,22,0,16-11,0-22
			M13,0l-4-9-9-4-9,4-4,9,4,9,9,4,9-4z
			M11,0a11,11,0,0,0-22,0,11,11,0,0,0,22,0
		"/>
		<path d="M-6-3v5l3,2v1 M0-6v4l-3,2v1 M3,0l-3,2v4 M6-3v5l-3,2v1" stroke-width="1.5"/>
	</g>
</svg>